# xmcd
#
# Track frame offsets:
# 150
# 3619
# 10285
# 16980
# 20031
# 50754
#
# Disc length: 1162 seconds
#
# Revision: 0
# Processed by: cddbd v1.4PL0 Copyright (c) Steve Scherf et al.
# Submitted via: Audion 2.6.0 (http://www.panic.com/audion/)
#
DISCID=45048806
DTITLE=BA - Disc'y Aud 11/11/03
DYEAR=1900
DGENRE=
TTITLE0=no
TTITLE1=no
TTITLE2=no
TTITLE3=no
TTITLE4=good
TTITLE5=better
EXTD=
EXTT0=
EXTT1=
EXTT2=
EXTT3=
EXTT4=
EXTT5=
PLAYORDER=
